HIERARCHY
ROOT Hips
{
 OFFSET 0.000000 0.000000 0.000000
 CHANNELS 6 Xposition Yposition Zposition Yrotation Xrotation Zrotation
 JOINT Chest
 {
  OFFSET 0.000000 9.585900 0.002600
  CHANNELS 3 Yrotation Xrotation Zrotation
  JOINT Chest2
  {
   OFFSET 0.000000 9.601200 -0.005300
   CHANNELS 3 Yrotation Xrotation Zrotation
   JOINT Chest3
   {
    OFFSET 0.000000 9.561800 0.000000
    CHANNELS 3 Yrotation Xrotation Zrotation
    JOINT Chest4
    {
     OFFSET 0.000000 9.552100 0.000000
     CHANNELS 3 Yrotation Xrotation Zrotation
     JOINT Neck
     {
      OFFSET 0.000000 14.453000 0.000000
      CHANNELS 3 Yrotation Xrotation Zrotation
      JOINT Head
      {
       OFFSET 0.000000 8.936500 -0.011300
       CHANNELS 3 Yrotation Xrotation Zrotation
       End Site
       {
        OFFSET 0.000000 17.073600 -0.006000
       }
      }
     }
     JOINT RightCollar
     {
      OFFSET -2.921100 9.558500 0.000000
      CHANNELS 3 Yrotation Xrotation Zrotation
      JOINT RightShoulder
      {
       OFFSET -13.519700 0.000000 0.000000
       CHANNELS 3 Yrotation Xrotation Zrotation
       JOINT RightElbow
       {
        OFFSET 0.000000 -29.696600 0.000000
        CHANNELS 3 Yrotation Xrotation Zrotation
        JOINT RightWrist
        {
         OFFSET 0.000000 -24.004700 0.000000
         CHANNELS 3 Yrotation Xrotation Zrotation
         End Site
         {
          OFFSET 0.000000 -17.728500 0.000000
         }
        }
       }
      }
     }
     JOINT LeftCollar
     {
      OFFSET 2.921100 9.558500 0.000000
      CHANNELS 3 Yrotation Xrotation Zrotation
      JOINT LeftShoulder
      {
       OFFSET 13.519700 0.000000 0.000000
       CHANNELS 3 Yrotation Xrotation Zrotation
       JOINT LeftElbow
       {
        OFFSET 0.000000 -29.696600 0.000000
        CHANNELS 3 Yrotation Xrotation Zrotation
        JOINT LeftWrist
        {
         OFFSET 0.000000 -24.004700 0.000000
         CHANNELS 3 Yrotation Xrotation Zrotation
         End Site
         {
          OFFSET 0.000000 -17.728500 0.000000
         }
        }
       }
      }
     }
    }
   }
  }
 }
 JOINT RightHip
 {
  OFFSET -7.771700 -0.012900 -0.001300
  CHANNELS 3 Yrotation Xrotation Zrotation
  JOINT RightKnee
  {
   OFFSET 0.000000 -40.869800 0.001200
   CHANNELS 3 Yrotation Xrotation Zrotation
   JOINT RightAnkle
   {
    OFFSET 0.000000 -39.717900 0.002100
    CHANNELS 3 Yrotation Xrotation Zrotation
    JOINT RightToe
    {
     OFFSET 0.000000 -4.965400 11.033500
     CHANNELS 3 Yrotation Xrotation Zrotation
     End Site
     {
      OFFSET 0.000000 -1.423100 5.872300
     }
    }
   }
  }
 }
 JOINT LeftHip
 {
  OFFSET 7.771700 -0.012900 -0.001300
  CHANNELS 3 Yrotation Xrotation Zrotation
  JOINT LeftKnee
  {
   OFFSET 0.000000 -40.869800 0.001200
   CHANNELS 3 Yrotation Xrotation Zrotation
   JOINT LeftAnkle
   {
    OFFSET 0.000000 -39.717900 0.002100
    CHANNELS 3 Yrotation Xrotation Zrotation
    JOINT LeftToe
    {
     OFFSET 0.000000 -4.965400 11.033500
     CHANNELS 3 Yrotation Xrotation Zrotation
     End Site
     {
      OFFSET 0.000000 -1.423100 5.872300
     }
    }
   }
  }
 }
}
MOTION
Frames: 15
Frame Time: 0.008333
0.000000 85.388000 0.000000 0.000000 -5.767877 0.000000 0.000000 11.653817 0.000000 0.000000 -5.885947 0.000000 0.000000 -0.000000 0.000000 0.000000 -0.000000 0.000000 0.000000 12.528835 0.000000 0.000000 0.711642 0.000000 0.000000 -0.000000 0.000000 0.000000 0.000000 -90.000000 0.000000 -2.309062 0.000000 0.000000 2.309062 0.000000 0.000000 -0.000000 0.000000 0.000000 -0.000000 90.000000 0.000000 -2.309062 0.000000 0.000000 2.309062 0.000000 0.000000 8.520406 0.000000 0.000000 1.905762 0.000000 -0.000000 -4.658285 0.000000 0.000000 -0.000000 0.000000 0.000000 8.520406 0.000000 0.000000 1.905762 0.000000 -0.000000 -4.658285 0.000000 0.000000 -0.000000 0.000000
-69.138141 63.116890 12.666255 164.919462 -49.938675 -2.729335 8.023429 25.506725 5.353530 1.208343 4.436146 0.436509 1.945848 6.974427 0.751612 6.392304 20.889758 3.133981 2.716630 14.478516 1.217951 4.636017 -8.904307 1.251957 5.580176 5.372141 6.252259 1.563850 -17.196342 -14.473246 -112.158997 -57.916158 150.650629 20.559265 10.676723 8.302309 -10.685255 1.975737 -1.118961 -4.145215 -9.650869 18.227629 93.626048 -77.430436 -126.069307 3.036922 9.911357 -13.939329 -4.892113 -10.400800 10.226122 -26.914377 74.523151 -25.333149 0.476093 -13.772878 -2.245176 -0.396688 0.791958 -0.173693 -2.680259 -17.202755 0.940334 15.996605 62.354066 9.048643 -0.834481 -5.971654 1.143132 -0.447153 -0.608162 -0.191800
-69.137668 63.117103 12.662866 164.914889 -49.952251 -2.739655 8.035637 25.499961 5.375475 1.217184 4.375970 0.449739 1.938487 6.998478 0.752525 6.401619 20.866095 3.140458 2.839420 14.577033 1.179788 4.879529 -8.718335 1.136726 5.520024 5.414301 6.295860 1.569207 -17.194178 -14.493908 -111.442814 -57.710092 150.144918 20.307312 10.543602 8.169948 -10.694807 2.049761 -1.138432 -4.009808 -9.672573 18.197936 95.095435 -77.597957 -127.213036 2.641970 9.889631 -14.702565 -4.902100 -10.382721 10.232306 -26.885580 74.526837 -25.308803 0.484500 -13.776083 -2.246436 -0.403213 0.791515 -0.179740 -2.683041 -17.189782 0.954165 16.004651 62.374815 9.051946 -0.820352 -6.043128 1.143571 -0.448504 -0.636845 -0.194547
-69.137930 63.117829 12.658470 164.907982 -49.971009 -2.745815 8.049047 25.497986 5.394405 1.227684 4.333340 0.452735 1.932373 7.000247 0.758673 6.417323 20.839094 3.147322 2.982102 14.684528 1.145145 5.158425 -8.515044 1.021381 5.463520 5.469450 6.336970 1.475935 -17.259672 -14.470557 -110.538284 -57.492669 149.534214 20.049083 10.399408 8.015527 -10.711107 2.180897 -1.140880 -3.844038 -9.726089 18.144662 96.919199 -77.774247 -128.653269 2.168921 9.883430 -15.604584 -4.917940 -10.354906 10.236517 -26.839252 74.526237 -25.275568 0.492052 -13.784971 -2.248462 -0.407788 0.798149 -0.183896 -2.684053 -17.176461 0.964893 16.009430 62.399933 9.053955 -0.808205 -6.095655 1.144750 -0.444519 -0.663036 -0.197315
-69.139013 63.117540 12.654682 164.904696 -49.981722 -2.753919 8.078731 25.422362 5.418826 1.216224 4.362744 0.453501 1.945417 6.935076 0.764304 6.423367 20.862152 3.164246 3.143769 14.799522 1.113512 5.471168 -8.297075 0.905342 5.382710 5.514273 6.396516 1.449399 -17.262076 -14.483208 -109.733776 -57.236490 148.964261 19.779477 10.237625 7.840307 -10.741032 2.296181 -1.145328 -3.639827 -9.736241 18.075562 99.142565 -77.970743 -130.411865 1.594712 9.860832 -16.675755 -4.923656 -10.339190 10.242720 -26.815384 74.525495 -25.256556 0.492546 -13.791908 -2.245618 -0.408325 0.801896 -0.185491 -2.700467 -17.176672 0.975472 16.034221 62.430143 9.066013 -0.789930 -6.141897 1.147377 -0.451961 -0.684791 -0.202561
-69.139717 63.116747 12.651747 164.910708 -49.986962 -2.774956 8.095795 25.379557 5.442953 1.209110 4.379953 0.454567 1.956801 6.890681 0.765401 6.443839 20.835288 3.178595 3.324818 14.920595 1.083271 5.819091 -8.067020 0.785628 5.276874 5.547689 6.471087 1.430179 -17.251809 -14.501507 -108.965622 -56.975149 148.425284 19.491342 10.058368 7.645221 -10.768885 2.452724 -1.135585 -3.405806 -9.766634 17.969965 101.878589 -78.198351 -132.594532 0.922105 9.786268 -17.939291 -4.934821 -10.329384 10.254528 -26.794190 74.526065 -25.239242 0.498789 -13.795834 -2.240048 -0.415125 0.804012 -0.190735 -2.714686 -17.169452 0.990584 16.044905 62.449095 9.069255 -0.773231 -6.243372 1.150966 -0.466805 -0.652498 -0.206926
-69.139230 63.117783 12.648112 164.884502 -50.005478 -2.778613 8.140068 25.346960 5.479339 1.215800 4.354806 0.456562 1.937787 6.942704 0.766807 6.481803 20.755466 3.188425 3.525232 15.046573 1.053693 6.202214 -7.826804 0.660932 5.204093 5.616989 6.511101 1.347295 -17.288074 -14.472172 -108.246847 -56.703815 147.931006 19.190130 9.868470 7.442937 -10.799559 2.621646 -1.117092 -3.128855 -9.794902 17.826648 105.266048 -78.445801 -135.347056 0.183850 9.646659 -19.411990 -4.924898 -10.307150 10.271624 -26.770881 74.524182 -25.216169 0.503488 -13.796705 -2.234385 -0.420005 0.805567 -0.197688 -2.705885 -17.154320 1.013835 16.024352 62.481481 9.050783 -0.754188 -6.322204 1.151921 -0.471351 -0.649780 -0.210178
-69.141158 63.117208 12.645752 164.879409 -50.009154 -2.787030 8.166815 25.302510 5.503250 1.223090 4.329707 0.459756 1.933185 6.938567 0.770079 6.508070 20.731380 3.206016 3.743585 15.177579 1.025977 6.617311 -7.576095 0.534153 5.079634 5.649688 6.583401 1.299416 -17.287854 -14.470171 -107.592409 -56.417521 147.490373 18.885693 9.675757 7.251380 -10.801753 2.882373 -1.024817 -2.816194 -9.908322 17.586888 109.306425 -78.665201 -138.688519 -0.597581 9.448118 -21.111268 -4.927531 -10.300270 10.278512 -26.774600 74.517713 -25.220793 0.516300 -13.797402 -2.231881 -0.424964 0.807915 -0.199855 -2.712036 -17.154274 1.022674 16.036093 62.499261 9.060755 -0.746745 -6.385722 1.152720 -0.473719 -0.650457 -0.213816
-69.144435 63.117860 12.642623 164.878570 -50.020373 -2.789224 8.188467 25.267631 5.518561 1.225688 4.318969 0.462239 1.936823 6.922649 0.774484 6.531229 20.705018 3.222750 3.979324 15.314969 1.000709 7.063014 -7.312345 0.406995 4.953952 5.682463 6.651498 1.234305 -17.289893 -14.451769 -107.034825 -56.130330 147.129048 18.569193 9.485018 7.074394 -10.806427 3.104993 -0.944609 -2.422661 -9.978709 17.327456 113.794666 -78.799654 -142.440353 -1.422840 9.193924 -23.050698 -4.930079 -10.286766 10.272891 -26.751954 74.519380 -25.194208 0.511285 -13.798960 -2.237218 -0.418632 0.806953 -0.196497 -2.711257 -17.146691 1.012264 16.061695 62.510640 9.095133 -0.738634 -6.436081 1.151764 -0.482660 -0.660730 -0.219449
-69.149560 63.118351 12.639795 164.879973 -50.028714 -2.781321 8.197599 25.243911 5.517909 1.233166 4.298058 0.465536 1.944335 6.903720 0.777172 6.526807 20.728268 3.235994 4.253731 15.414629 0.971568 7.538990 -7.034712 0.278932 4.864014 5.679889 6.695238 1.140493 -17.303737 -14.403184 -106.583938 -55.865617 146.861509 18.219465 9.287692 6.898971 -10.782006 3.259928 -0.868467 -1.932690 -10.026532 17.039001 118.469200 -78.815544 -146.372024 -2.268385 8.886000 -25.218744 -4.931702 -10.278234 10.254350 -26.729017 74.524439 -25.166456 0.502811 -13.803773 -2.242664 -0.409567 0.807587 -0.192597 -2.706198 -17.142116 0.993735 16.077410 62.517312 9.116917 -0.742287 -6.468319 1.149994 -0.481911 -0.682574 -0.218955
-69.151294 63.119126 12.638644 164.876944 -50.036845 -2.789496 8.209588 25.239584 5.533326 1.239391 4.282497 0.467598 1.958297 6.861280 0.781283 6.559290 20.681491 3.255300 4.510729 15.587597 0.953918 8.040431 -6.744095 0.152129 4.739700 5.743731 6.740730 1.031343 -17.318794 -14.335147 -106.219440 -55.642744 146.681849 17.829553 9.059305 6.707564 -10.784721 3.483222 -0.788735 -1.331972 -10.082569 16.692993 123.056350 -78.695876 -150.253590 -3.075209 8.557256 -27.556674 -4.934975 -10.268074 10.257011 -26.704276 74.523873 -25.136784 0.501486 -13.799419 -2.249936 -0.406644 0.804609 -0.189517 -2.704127 -17.134841 0.995153 16.090194 62.527772 9.137802 -0.735823 -6.522977 1.151725 -0.487145 -0.663345 -0.224391
-69.151070 63.119975 12.638826 164.866665 -50.043975 -2.801767 8.244903 25.200396 5.568828 1.229772 4.298062 0.466929 1.995832 6.770395 0.790216 6.572135 20.683793 3.279422 4.779765 15.766032 0.938978 8.562486 -6.440793 0.027799 4.645971 5.830279 6.769655 0.872806 -17.362099 -14.237974 -105.906644 -55.467094 146.564631 17.400898 8.790203 6.494470 -10.785949 3.703297 -0.695830 -0.599275 -10.150392 16.282329 127.198443 -78.439529 -153.788289 -3.798287 8.255597 -29.977867 -4.936252 -10.258520 10.271087 -26.665982 74.521463 -25.096458 0.503913 -13.790412 -2.253876 -0.411298 0.801120 -0.189810 -2.702079 -17.129177 1.007591 16.103413 62.539619 9.164937 -0.739989 -6.572833 1.141884 -0.480456 -0.648922 -0.224098
-69.151554 63.119551 12.640555 164.865052 -50.040160 -2.814522 8.290082 25.108132 5.607492 1.234661 4.278383 0.472279 1.981698 6.790644 0.795021 6.563070 20.719860 3.290504 5.093641 15.884786 0.918848 9.104587 -6.127266 -0.097567 4.548413 5.818341 6.806234 0.743702 -17.368872 -14.156562 -105.594348 -55.324915 146.468919 16.948018 8.490252 6.258546 -10.742387 3.846087 -0.581626 0.280349 -10.231954 15.804726 130.590921 -78.071482 -156.727673 -4.403734 7.997160 -32.378766 -4.941543 -10.260829 10.279163 -26.630024 74.516953 -25.053541 0.496788 -13.780958 -2.254734 -0.405060 0.798884 -0.193360 -2.704656 -17.133301 1.015408 16.112164 62.542588 9.181501 -0.735443 -6.611620 1.141108 -0.481031 -0.658324 -0.227009
-69.152239 63.120451 12.641633 164.865135 -50.046294 -2.821520 8.305808 25.073493 5.631705 1.235867 4.269417 0.474581 1.983869 6.777111 0.798755 6.590257 20.675520 3.309812 5.383953 16.069057 0.903080 9.666864 -5.810106 -0.227216 4.430847 5.864257 6.838282 0.594258 -17.374743 -14.068380 -105.229896 -55.186288 146.369334 16.507910 8.183613 5.986834 -10.711110 4.032146 -0.469012 1.295332 -10.337345 15.267533 133.040816 -77.622188 -158.888637 -4.863580 7.779281 -34.663560 -4.943571 -10.253796 10.281097 -26.649692 74.510694 -25.061468 0.495843 -13.776065 -2.267116 -0.394272 0.796234 -0.184589 -2.704023 -17.126891 1.011868 16.127313 62.542556 9.207521 -0.726373 -6.641049 1.139368 -0.480860 -0.672131 -0.229491
-69.153062 63.121439 12.643105 164.868091 -50.052912 -2.825660 8.309258 25.061023 5.642990 1.238650 4.244025 0.484451 1.984493 6.765311 0.802114 6.608604 20.636596 3.327980 5.684827 16.249085 0.885026 10.243393 -5.496094 -0.358838 4.344139 5.910507 6.855590 0.418443 -17.388285 -13.972703 -104.774042 -55.018381 146.246980 16.112130 7.907765 5.667906 -10.647058 4.200988 -0.345596 2.406543 -10.473534 14.688441 134.476819 -77.109916 -160.161627 -5.161638 7.607488 -36.752100 -4.951869 -10.243796 10.276075 -26.635202 74.505460 -25.041926 0.496605 -13.775863 -2.270691 -0.387671 0.799296 -0.187250 -2.705164 -17.119296 1.004022 16.141025 62.541079 9.230326 -0.721145 -6.667935 1.138110 -0.486839 -0.712461 -0.230586
